<?xml version="1.0" standalone="no"?>
<!DOCTYPE svg PUBLIC "-//W3C//DTD SVG 20010904//EN"
 "http://www.w3.org/TR/2001/REC-SVG-20010904/DTD/svg10.dtd">
<svg version="1.0" xmlns="http://www.w3.org/2000/svg"
 width="576.000000pt" height="576.000000pt" viewBox="0 0 576.000000 576.000000"
 preserveAspectRatio="xMidYMid meet">
<metadata>
Created by potrace 1.14, written by Peter Selinger 2001-2017
</metadata>
<g transform="translate(0.000000,576.000000) scale(0.100000,-0.100000)"
fill="#000000" stroke="none">
<path d="M2670 5670 c-41 -11 -109 -37 -150 -57 -92 -46 -1342 -898 -1415
-965 -29 -26 -63 -63 -76 -82 -13 -20 -27 -36 -31 -36 -25 0 -142 288 -188
463 -16 60 -36 120 -45 133 -42 65 -150 85 -216 41 -40 -26 -61 -66 -83 -157
-9 -36 -41 -157 -71 -270 -104 -389 -203 -857 -259 -1220 -54 -349 -59 -433
-61 -950 -1 -267 -10 -699 -20 -961 -17 -450 -17 -480 -1 -553 27 -121 86
-228 176 -317 128 -129 151 -137 965 -363 385 -107 727 -204 760 -216 162 -56
434 -111 655 -131 176 -16 528 -6 702 21 174 26 265 49 1193 309 489 136 785
224 830 245 196 93 328 258 370 461 13 62 15 109 11 205 -12 247 -37 1003 -46
1405 -9 406 -19 544 -60 820 -60 409 -148 808 -336 1520 -34 129 -65 166 -147
173 -64 5 -117 -16 -146 -57 -11 -15 -29 -64 -41 -109 -30 -119 -76 -254 -123
-357 -68 -151 -53 -148 -160 -43 -79 77 -185 153 -732 525 -351 240 -671 451
-710 469 -113 54 -209 74 -349 73 -86 0 -143 -6 -196 -19z m-1085 -1690 c251
-80 451 -261 585 -527 140 -280 175 -626 95 -944 -58 -232 -163 -416 -324
-572 -105 -101 -210 -166 -341 -209 -89 -30 -104 -32 -235 -32 -126 0 -148 3
-225 28 -106 35 -178 71 -256 129 -411 302 -573 922 -383 1464 122 349 390
607 703 679 92 21 291 12 381 -16z m3010 0 c140 -45 269 -123 375 -229 360
-360 453 -988 220 -1478 -66 -139 -134 -235 -239 -336 -105 -101 -210 -166
-341 -209 -89 -30 -105 -32 -235 -32 -130 0 -147 2 -235 32 -341 113 -591 424
-682 845 -29 136 -31 398 -5 531 95 475 390 814 778 896 78 16 285 5 364 -20z
m-1039 -2577 c62 -33 114 -118 114 -186 0 -69 -89 -215 -194 -318 -194 -191
-493 -277 -776 -223 -177 33 -316 107 -446 238 -75 75 -99 108 -137 185 -26
51 -47 103 -47 115 0 76 72 175 145 201 33 12 148 14 670 12 626 -2 630 -2
671 -24z"/>
<path d="M1535 3449 c-156 -22 -320 -153 -402 -319 -65 -131 -86 -236 -80
-395 3 -96 10 -148 27 -200 143 -448 582 -596 879 -296 79 80 124 153 162 263
70 204 56 435 -38 622 -118 235 -323 356 -548 325z"/>
<path d="M4061 3449 c-310 -43 -531 -392 -489 -774 40 -369 324 -637 622 -587
226 39 399 220 467 492 29 112 23 317 -11 425 -65 207 -209 368 -376 423 -73
24 -142 31 -213 21z"/>
</g>
</svg>
