<?xml version="1.0" standalone="no"?>
<!DOCTYPE svg PUBLIC "-//W3C//DTD SVG 20010904//EN"
 "http://www.w3.org/TR/2001/REC-SVG-20010904/DTD/svg10.dtd">
<svg version="1.0" xmlns="http://www.w3.org/2000/svg"
 width="700.000000pt" height="700.000000pt" viewBox="0 0 700.000000 700.000000"
 preserveAspectRatio="xMidYMid meet">
<metadata>
Created by potrace 1.14, written by Peter Selinger 2001-2017
</metadata>
<g transform="translate(0.000000,700.000000) scale(0.100000,-0.100000)"
fill="#000000" stroke="none">
<path d="M1790 6989 c-347 -36 -704 -176 -987 -387 -449 -334 -737 -846 -793
-1411 -14 -141 -14 -3241 0 -3382 39 -392 197 -777 439 -1073 337 -410 828
-673 1355 -725 147 -15 3242 -15 3387 -1 365 36 723 174 1005 386 452 340 738
848 794 1413 14 141 14 3241 0 3382 -64 648 -432 1220 -990 1541 -249 143
-523 231 -806 258 -134 12 -3279 11 -3404 -1z m390 -1799 c111 -14 167 -33
269 -91 173 -99 358 -145 541 -136 145 8 224 28 370 92 161 70 419 129 625
142 224 13 513 -43 721 -141 135 -63 227 -89 371 -106 85 -10 113 -9 189 5
188 35 352 85 431 131 47 27 97 33 131 15 36 -19 91 -163 112 -294 20 -123 8
-332 -24 -442 -54 -178 -142 -322 -274 -447 -92 -85 -178 -134 -349 -197 -127
-46 -158 -49 -211 -22 -48 25 -76 63 -111 156 -146 377 -477 619 -882 642
-494 28 -932 -312 -1034 -803 -21 -103 -21 -285 0 -388 85 -410 403 -719 814
-791 106 -19 316 -19 402 -1 114 24 187 71 434 275 62 52 125 96 145 101 94
26 187 -2 244 -73 l31 -39 0 -342 0 -341 -33 -67 c-54 -110 -161 -193 -282
-219 -80 -17 -964 -5 -1060 14 -395 80 -681 234 -946 509 -125 130 -227 282
-325 483 -68 140 -79 156 -157 233 -46 45 -126 115 -178 154 -102 77 -111 88
-249 333 -234 416 -403 581 -705 686 -52 18 -106 44 -119 57 -21 21 -23 30
-19 86 7 86 66 250 124 348 55 91 168 217 256 284 121 93 306 172 453 193 86
12 198 13 295 1z m2231 -1478 c76 -40 112 -94 117 -176 6 -98 -8 -127 -121
-243 -121 -125 -179 -158 -261 -151 -115 10 -197 91 -204 203 -6 97 8 126 121
242 152 156 233 185 348 125z"/>
</g>
</svg>
