<?xml version="1.0" standalone="no"?>
<!DOCTYPE svg PUBLIC "-//W3C//DTD SVG 20010904//EN"
 "http://www.w3.org/TR/2001/REC-SVG-20010904/DTD/svg10.dtd">
<svg version="1.0" xmlns="http://www.w3.org/2000/svg"
 width="576.000000pt" height="576.000000pt" viewBox="0 0 576.000000 576.000000"
 preserveAspectRatio="xMidYMid meet">
<metadata>
Created by potrace 1.14, written by Peter Selinger 2001-2017
</metadata>
<g transform="translate(0.000000,576.000000) scale(0.100000,-0.100000)"
fill="#000000" stroke="none">
<path d="M2755 5690 c-86 -14 -161 -37 -235 -74 -36 -17 -355 -229 -710 -471
-563 -384 -656 -451 -732 -527 l-88 -88 -33 67 c-53 106 -106 246 -142 380
-19 67 -39 131 -44 142 -30 55 -115 89 -180 71 -47 -12 -98 -62 -106 -104 -4
-17 -33 -130 -66 -251 -161 -604 -271 -1154 -325 -1630 -14 -118 -18 -254 -19
-640 -1 -269 -10 -699 -20 -955 -19 -496 -17 -529 26 -646 33 -86 114 -199
188 -260 126 -105 88 -92 1136 -384 259 -72 517 -146 575 -165 516 -165 1118
-178 1652 -36 396 106 1625 454 1677 475 86 35 160 87 233 164 76 81 108 133
145 238 26 74 28 88 26 234 -1 85 -9 355 -18 600 -9 245 -20 627 -25 850 -5
235 -16 466 -25 550 -47 429 -168 1031 -321 1598 -31 114 -60 223 -64 242 -18
92 -101 144 -190 120 -61 -16 -97 -53 -116 -118 -53 -185 -111 -350 -154 -440
l-50 -103 -82 85 c-73 76 -157 136 -723 523 -352 240 -674 454 -715 475 -135
68 -331 100 -475 78z m-1203 -1699 c156 -40 285 -116 411 -242 159 -161 264
-366 319 -622 29 -137 31 -387 4 -527 -86 -445 -365 -785 -725 -882 -101 -28
-287 -29 -381 -4 -210 57 -411 204 -539 395 -263 389 -292 940 -73 1366 136
264 353 449 606 515 99 26 277 27 378 1z m3010 0 c155 -40 284 -116 409 -240
359 -359 452 -987 219 -1477 -60 -128 -113 -206 -204 -302 -118 -124 -258
-210 -413 -254 -110 -31 -286 -31 -396 0 -356 101 -625 421 -719 855 -31 145
-31 418 -1 558 99 445 370 766 727 859 99 26 277 27 378 1z m-1016 -2580 c63
-29 124 -120 124 -185 0 -70 -74 -200 -174 -304 -316 -330 -874 -348 -1213
-38 -104 95 -213 268 -213 339 0 67 57 154 122 186 43 21 50 21 678 21 599 0
637 -2 676 -19z"/>
<path d="M1515 3448 c-153 -29 -303 -154 -386 -323 -54 -112 -71 -181 -76
-325 -6 -153 16 -261 80 -390 83 -170 251 -300 408 -318 136 -15 251 16 359
97 185 139 288 408 259 673 -33 297 -217 533 -456 583 -76 16 -116 17 -188 3z"/>
<path d="M4023 3445 c-91 -20 -178 -71 -255 -148 -54 -54 -78 -88 -117 -170
-62 -128 -82 -219 -82 -362 1 -307 168 -573 411 -655 71 -24 192 -28 262 -10
179 48 340 219 408 435 30 95 38 299 17 402 -75 351 -357 574 -644 508z"/>
</g>
</svg>
