<?xml version="1.0" standalone="no"?>
<!DOCTYPE svg PUBLIC "-//W3C//DTD SVG 20010904//EN"
 "http://www.w3.org/TR/2001/REC-SVG-20010904/DTD/svg10.dtd">
<svg version="1.0" xmlns="http://www.w3.org/2000/svg"
 width="700.000000pt" height="700.000000pt" viewBox="0 0 700.000000 700.000000"
 preserveAspectRatio="xMidYMid meet">
<metadata>
Created by potrace 1.14, written by Peter Selinger 2001-2017
</metadata>
<g transform="translate(0.000000,700.000000) scale(0.100000,-0.100000)"
fill="#000000" stroke="none">
<path d="M1863 5185 c-141 -25 -267 -77 -394 -161 -89 -59 -233 -212 -292
-310 -60 -102 -117 -259 -124 -346 -5 -60 -4 -68 18 -90 13 -13 67 -39 119
-57 124 -43 230 -99 307 -161 124 -101 262 -282 399 -525 137 -245 146 -256
248 -333 52 -39 132 -109 178 -154 76 -76 89 -95 152 -223 84 -173 121 -235
207 -350 75 -101 241 -267 339 -339 204 -151 446 -256 705 -308 89 -18 150
-21 572 -25 515 -5 544 -3 638 52 59 35 132 115 161 179 37 80 46 186 42 463
-4 264 -8 285 -56 337 -56 60 -169 84 -245 52 -18 -7 -104 -72 -192 -144 -275
-226 -304 -237 -580 -236 -160 1 -202 4 -267 22 -180 49 -329 132 -457 256
-127 123 -213 265 -267 441 -26 85 -28 101 -28 275 0 174 2 190 28 275 33 107
90 225 150 309 53 74 181 198 256 247 524 345 1232 136 1472 -435 56 -133 69
-156 105 -183 56 -43 104 -42 234 7 180 67 261 113 355 203 203 192 305 435
305 722 0 156 -26 281 -84 404 -34 73 -91 84 -177 33 -55 -33 -233 -89 -375
-117 -124 -26 -135 -26 -235 -15 -148 17 -231 41 -367 103 -273 127 -572 172
-852 131 -218 -32 -376 -72 -503 -130 -131 -58 -225 -82 -358 -91 -164 -11
-366 34 -510 114 -36 20 -90 49 -122 65 -103 52 -343 73 -505 43z"/>
<path d="M4215 3716 c-61 -29 -237 -205 -261 -261 -46 -111 3 -241 110 -291
111 -52 186 -26 328 113 112 111 139 157 139 238 0 167 -166 272 -316 201z"/>
</g>
</svg>
